# xmcd CD database file
#
# Track frame offsets:
#	182
#	18565
#	34605
#	47177
#	61200
#	74730
#	88625
#	104317
#	118012
#	133080
#	158595
#
# Disc length: 2335 seconds
#
# Revision: 0
# Processed by: cddbd v1.4PL0 Copyright (c) Steve Scherf et al.
# Submitted via: CDex 1.51
#
DISCID=95091d0b
DTITLE=Chris Donison - Live at the North Pole
DYEAR=1984
DGENRE=Jazz
TTITLE0=Santa Claus is Coming to Town
TTITLE1=Jingle Bells
TTITLE2=What Child is This
TTITLE3=Winter Wonderland
TTITLE4=I'm Dreaming of a White Christmas
TTITLE5=The First Noel
TTITLE6=Rudolph the Red Nosed Reindeer
TTITLE7=Silent Night
TTITLE8=I Saw Three Ships Come Sailing In
TTITLE9=God Rest Ye Merry Gentlemen
TTITLE10=Here Comes Santa Claus
EXTD=YEAR: 1984
EXTT0=
EXTT1=
EXTT2=
EXTT3=
EXTT4=
EXTT5=
EXTT6=
EXTT7=
EXTT8=
EXTT9=
EXTT10=
PLAYORDER=
